PathFileType	4	(X/Y/Z)	C:/Users/beibeiliu/ov580/test_trc/User3\sequence.19_training_dense_right.trc
DataRate	CameraRate	NumFrames	NumMarkers	Units	OrigDataRate	OrigDataStartFrame	OrigNumFrames
120	120	12	19	mm	120	54	80
Frame#	Time	ThumbCMC			ThumbMCP			ThumbIP			ThumbTip			IndexMCP			IndexPIP			IndexTip			MiddleMCP			MiddlePIP			MiddleTip			RingMCP			RingPIP			RingTip			PinkyMCP			PinkyPIP			PinkyTip			BackHand1			BackHand2			BackHand3	
		X0	Y0	Z0	X1	Y1	Z1	X2	Y2	Z2	X3	Y3	Z3	X4	Y4	Z4	X5	Y5	Z5	X6	Y6	Z6	X7	Y7	Z7	X8	Y8	Z8	X9	Y9	Z9	X10	Y10	Z10	X11	Y11	Z11	X12	Y12	Z12	X13	Y13	Z13	X14	Y14	Z14	X15	Y15	Z15	X16	Y16	Z16	X17	Y17	Z17	X18	Y18	Z18	
53	0.441667	225.646	35.2177	15.4321	220.442	44.3269	-19.0851	212.977	43.0014	-45.9111	200.353	32.3852	-70.8136	240.457	-16.0041	-40.0569	236.788	-16.8251	-70.0546	220.437	-2.71822	-91.1933	227.628	-31.6446	-42.5425	217.332	-28.3648	-77.1982	195.62	-6.08434	-91.923	205.32	-40.0018	-37.8362	196.821	-35.8821	-64.1525	182.166	-9.15796	-80.3292	183.269	-38.553	-22.83	173.165	-35.7003	-47.2037	167.29	-14.3714	-63.6397	207.279	-29.3687	21.4071	202.655	-17.495	47.0205	232.92	-3.51916	28.1948	
54	0.45	230.119	39.6285	18.9039	227.309	45.5562	-14.0835	226.936	43.0269	-46.358	219.27	34.6886	-66.0827	265.681	-8.26415	-34.9414	265.906	-6.18439	-66.4382	251.797	2.6382	-86.5732	256.923	-25.8279	-36.3101	251.796	-23.5036	-70.4643	231.876	-4.99719	-89.2006	238.425	-34.1357	-32.8145	230.643	-36.042	-59.8051	214.316	-16.9704	-78.1942	215.089	-40.4069	-24.0541	208.492	-36.9702	-49.0241	194.306	-16.8386	-66.357	229.671	-23.29	22.1841	215.178	-14.4204	49.8007	246.824	4.80404	32.5317	
55	0.458333	227.905	48.4258	21.0785	227.29	53.2006	-13.8895	226.123	54.9415	-41.6777	224.505	39.9689	-65.1383	279.602	18.4129	-27.9876	280.663	17.3265	-58.242	267.802	23.1354	-80.9393	275.457	-4.27067	-30.2766	274.518	-2.44425	-62.9577	246.971	8.7867	-87.5632	258.485	-19.8945	-26.0703	257.999	-14.8995	-59.0458	234.121	-7.97375	-77.8828	239.298	-29.0375	-19.3815	234.085	-30.1097	-48.0755	222.38	-13.7617	-65.4341	245.576	-13.158	25.7435	226.083	-6.62856	51.2502	252.056	23.0227	36.9074	
56	0.466667	215.724	58.3771	22.6913	211.314	64.535	-12.4881	213.704	64.5696	-40.9671	215.115	54.4232	-63.9974	274.937	48.1794	-25.9868	277.512	54.162	-53.1909	261.872	54.8844	-80.6388	278.867	27.5437	-28.085	278.494	28.2219	-59.4025	251.208	32.8965	-85.2364	268.776	10.399	-25.0417	267.553	7.23731	-57.3373	244.264	10.0091	-76.5416	254.929	-7.55711	-20.1739	251.272	-12.1989	-47.3115	231.042	-3.87123	-65.3783	250.718	4.98251	27.333	234.149	4.40269	51.2807	246.04	37.9775	38.1593	
57	0.475	193.981	61.4954	24.5171	189.053	69.1189	-12.2284	188.745	72.22	-43.0192	193.55	61.895	-60.2633	252.079	78.0591	-23.0397	254.205	82.7504	-54.1912	237.684	77.9323	-79.6664	264.653	55.2798	-29.4914	261.688	60.5091	-63.3615	236.154	52.7543	-85.2507	262.439	34.035	-26.5185	261.735	36.5347	-57.0804	236.913	35.3016	-78.421	257.077	11.675	-24.6288	252.551	14.761	-48.3302	229.353	15.0818	-69.4829	247.096	27.1374	26.5965	234.199	16.1385	47.3458	231.511	51.4987	38.3198	
58	0.483333	177.502	58.7118	23.931	165.753	64.0688	-7.38409	162.577	70.1201	-36.3611	172.984	62.2179	-60.5567	226.223	89.1552	-22.9775	222.893	99.965	-54.5684	208.509	91.5899	-77.4396	242.209	73.4434	-28.7609	238.421	75.885	-65.1218	209.814	65.4501	-87.3277	245.062	56.0038	-28.0462	243.436	52.9057	-60.1319	222.582	46.4556	-78.9072	246.818	28.8067	-25.8465	241.232	29.7302	-51.8217	220.977	24.836	-70.7857	236.299	35.2193	24.2488	225.315	22.0264	49.6219	213.786	57.6884	39.7654	
59	0.491667	161.613	50.1338	25.6778	145.786	56.3045	-5.65611	148.004	58.9	-35.7337	150.822	55.4984	-57.786	196.674	93.8686	-24.1714	193.838	99.0217	-54.5269	180.747	85.7846	-79.0294	217.736	81.253	-34.7868	210.623	82.7478	-66.6321	188.724	65.2247	-86.8441	227.572	61.7218	-32.2014	223.15	60.9902	-62.7464	203.874	46.2055	-80.7732	232.626	36.3982	-26.8054	227.24	35.6497	-53.387	206.633	29.1356	-68.5509	223.756	45.2651	18.3208	217.336	27.6787	47.5084	198.467	58.2863	39.2418	
60	0.5	141.035	39.3646	28.449	131.541	39.6539	-3.77313	123.584	42.2379	-33.0752	126.558	39.2839	-58.9283	168.878	86.3868	-31.2918	156.811	87.3834	-61.9225	143.611	69.9184	-82.1743	187.283	78.7548	-35.2098	176.986	79.0766	-67.5857	160.778	47.9742	-89.9307	203.474	62.6811	-38.9507	196.852	58.6185	-65.2891	179.658	37.5373	-82.6407	214.779	37.6488	-30.2301	203.158	38.1084	-56.5628	190.916	21.2463	-71.15	207.858	47.2343	16.6005	205.932	32.3537	44.0125	179.414	58.8323	33.7598	
61	0.508333	129.755	33.3624	26.3896	111.745	26.8693	-0.268025	104.537	26.1095	-31.2867	111.341	21.5059	-53.2112	144.459	73.7391	-32.0785	135.709	69.8951	-65.9213	120.687	52.0378	-80.6684	168.466	66.6641	-41.313	152.875	64.2814	-74.0088	137.228	34.7735	-89.1111	180.634	55.5368	-40.8056	175.641	51.1126	-67.9977	161.857	25.936	-83.9436	195.21	36.2685	-35.0301	190.972	29.3293	-57.604	169.407	10.5035	-72.7877	191.884	45.1051	10.7735	194.093	34.1487	39.8315	160.92	56.0201	31.5959	
62	0.516667	121.109	30.6722	28.5786	105.553	20.6407	1.3591	94.9732	17.0855	-29.958	95.7716	9.66583	-50.7372	135.79	61.1142	-37.8498	125.29	55.7499	-66.3841	107.814	34.2137	-83.1089	156.214	58.0813	-51.018	141.82	49.6775	-76.9462	127.652	15.7216	-90.7993	173.423	43.1741	-43.6722	161.145	36.3332	-73.8136	147.533	7.92363	-85.0954	188.839	24.6117	-35.3875	177.977	17.6561	-60.5556	158.971	-1.07146	-70.4643	182.446	41.2031	10.5138	188.758	33.0833	39.4838	154.502	51.9538	25.8416	
63	0.525	116.969	28.8482	27.663	101.426	17.3265	2.3583	87.593	11.1995	-23.7453	86.6168	1.07984	-48.7034	131.199	52.2422	-41.564	113.685	45.9295	-70.0287	106.087	20.6785	-84.4778	152.191	47.3225	-50.7049	140.234	39.2352	-77.2809	124.735	4.08541	-93.6243	169.375	34.117	-44.5526	161.275	24.4821	-72.5813	147.144	0.0211894	-83.9032	184.206	16.7433	-35.073	175.401	10.3348	-56.7735	160.861	-10.2756	-71.3145	179.57	40.0992	5.74217	183.5	32.9129	38.829	148.539	50.6575	23.9573	
64	0.533333	116.965	25.7865	34.6335	96.3565	14.9526	4.48933	83.2592	5.60831	-16.6129	82.5588	-4.00982	-42.2251	123.735	48.1245	-39.7556	109.838	36.877	-70.6564	102.581	14.6242	-85.3434	145.285	42.7889	-50.5215	138.695	30.2779	-78.4866	121.386	3.12556	-95.0548	165.554	29.4142	-44.7562	159.385	16.4511	-75.3413	146.389	-3.05182	-85.8455	180.842	13.5726	-34.2537	176.213	3.03873	-57.8967	166.842	-16.2729	-72.3676	177.529	36.6202	4.76435	182.424	34.0628	37.4084	148.205	47.7354	25.0775	
